<svg xmlns="http://www.w3.org/2000/svg">
  <defs>
    <symbol id="home" viewBox="0 0 16 16">
      <path d="M8.354 1.146a.5.5 0 0 0-.708 0l-6 6A.5.5 0 0 0 1.5 7.5v7a.5.5 0 0 0 .5.5h4.5a.5.5 0 0 0 .5-.5v-4h2v4a.5.5 0 0 0 .5.5H14a.5.5 0 0 0 .5-.5v-7a.5.5 0 0 0-.146-.354L13 5.793V2.5a.5.5 0 0 0-.5-.5h-1a.5.5 0 0 0-.5.5v1.293zM2.5 14V7.707l5.5-5.5 5.5 5.5V14H10v-4a.5.5 0 0 0-.5-.5h-3a.5.5 0 0 0-.5.5v4z"/>
    </symbol>
    <symbol id="home-fill" viewBox="0 0 16 16">
      <path d="M6.5 14.5v-3.505c0-.245.25-.495.5-.495h2c.25 0 .5.25.5.5v3.5a.5.5 0 0 0 .5.5h4a.5.5 0 0 0 .5-.5v-7a.5.5 0 0 0-.146-.354L13 5.793V2.5a.5.5 0 0 0-.5-.5h-1a.5.5 0 0 0-.5.5v1.293L8.354 1.146a.5.5 0 0 0-.708 0l-6 6A.5.5 0 0 0 1.5 7.5v7a.5.5 0 0 0 .5.5h4a.5.5 0 0 0 .5-.5"/>
    </symbol>
    <symbol id="archives" viewBox="0 0 16 16">
      <path d="M0 2a1 1 0 0 1 1-1h14a1 1 0 0 1 1 1v2a1 1 0 0 1-1 1v7.5a2.5 2.5 0 0 1-2.5 2.5h-9A2.5 2.5 0 0 1 1 12.5V5a1 1 0 0 1-1-1zm2 3v7.5A1.5 1.5 0 0 0 3.5 14h9a1.5 1.5 0 0 0 1.5-1.5V5zm13-3H1v2h14zM5 7.5a.5.5 0 0 1 .5-.5h5a.5.5 0 0 1 0 1h-5a.5.5 0 0 1-.5-.5"/>
    </symbol>
    <symbol id="archives-fill" viewBox="0 0 16 16">
      <path d="M12.643 15C13.979 15 15 13.845 15 12.5V5H1v7.5C1 13.845 2.021 15 3.357 15zM5.5 7h5a.5.5 0 0 1 0 1h-5a.5.5 0 0 1 0-1M.8 1a.8.8 0 0 0-.8.8V3a.8.8 0 0 0 .8.8h14.4A.8.8 0 0 0 16 3V1.8a.8.8 0 0 0-.8-.8z"/>
    </symbol>
    <symbol id="contact" viewBox="0 0 16 16">
      <path d="M0 4a2 2 0 0 1 2-2h12a2 2 0 0 1 2 2v8a2 2 0 0 1-2 2H2a2 2 0 0 1-2-2zm2-1a1 1 0 0 0-1 1v.217l7 4.2 7-4.2V4a1 1 0 0 0-1-1zm13 2.383-4.708 2.825L15 11.105zm-.034 6.876-5.64-3.471L8 9.583l-1.326-.795-5.64 3.47A1 1 0 0 0 2 13h12a1 1 0 0 0 .966-.741M1 11.105l4.708-2.897L1 5.383z"/>
    </symbol>
    <symbol id="contact-fill" viewBox="0 0 16 16">
      <path d="M.05 3.555A2 2 0 0 1 2 2h12a2 2 0 0 1 1.95 1.555L8 8.414zM0 4.697v7.104l5.803-3.558zM6.761 8.83l-6.57 4.027A2 2 0 0 0 2 14h12a2 2 0 0 0 1.808-1.144l-6.57-4.027L8 9.586zm3.436-.586L16 11.801V4.697z"/>
    </symbol>
    <symbol id="about" viewBox="0 0 16 16">
      <path d="M11 8a3 3 0 1 1-6 0 3 3 0 0 1 6 0"/>
      <path d="M14 14V4.5L9.5 0H4a2 2 0 0 0-2 2v12a2 2 0 0 0 2 2h8a2 2 0 0 0 2-2M9.5 3A1.5 1.5 0 0 0 11 4.5h2v9.255S12 12 8 12s-5 1.755-5 1.755V2a1 1 0 0 1 1-1h5.5z"/>
    </symbol>
    <symbol id="about-fill" viewBox="0 0 16 16">
      <path d="M9.293 0H4a2 2 0 0 0-2 2v12a2 2 0 0 0 2 2h8a2 2 0 0 0 2-2V4.707A1 1 0 0 0 13.707 4L10 .293A1 1 0 0 0 9.293 0M9.5 3.5v-2l3 3h-2a1 1 0 0 1-1-1M11 8a3 3 0 1 1-6 0 3 3 0 0 1 6 0m2 5.755V14a1 1 0 0 1-1 1H4a1 1 0 0 1-1-1v-.245S4 12 8 12s5 1.755 5 1.755"/>
    </symbol>
  </defs>
</svg>